<svg width="32" height="32" viewBox="0 0 32 32" fill="none" xmlns="http://www.w3.org/2000/svg">
<path fill-rule="evenodd" clip-rule="evenodd" d="M15.0493 1.76546C15.4519 1.68662 15.8678 1.7081 16.2602 1.82799C16.6521 1.94774 17.0086 2.16199 17.2982 2.45188C17.2985 2.45224 17.2989 2.4526 17.2993 2.45296L30.3434 15.4971C30.577 15.7273 30.7627 16.0014 30.8899 16.3036C31.0185 16.6091 31.0848 16.9373 31.0848 17.2688C31.0848 17.6002 31.0185 17.9284 30.8899 18.2339C30.7627 18.5361 30.577 18.8102 30.3434 19.0404L19.0404 30.3435C18.8102 30.577 18.5361 30.7627 18.2339 30.89C17.9284 31.0186 17.6002 31.0848 17.2687 31.0848C16.9373 31.0848 16.6091 31.0186 16.3036 30.89C16.0014 30.7627 15.7273 30.577 15.4971 30.3435L2.45294 17.2993C2.45257 17.2989 2.4522 17.2985 2.45183 17.2982C2.16196 17.0085 1.94772 16.6521 1.82798 16.2602C1.70808 15.8678 1.6866 15.4519 1.76544 15.0493L1.76647 15.044L1.76648 15.044L3.77898 4.95653C3.89756 4.36218 4.36216 3.89757 4.95652 3.779L15.044 1.7665L15.3375 3.23751L15.0493 1.76546ZM15.1765 4.57279L15.1768 4.57317C15.1767 4.57304 15.1766 4.57292 15.1765 4.57279ZM15.1757 4.57205L15.1765 4.57279C15.1762 4.57255 15.176 4.5723 15.1757 4.57205ZM15.3652 4.76154L27.8724 17.2688L17.2687 27.8724L4.76152 15.3652L6.52515 6.52517L15.3652 4.76154Z" fill="black"/>
<path d="M10.5 12.5C11.6046 12.5 12.5 11.6046 12.5 10.5C12.5 9.39543 11.6046 8.5 10.5 8.5C9.39543 8.5 8.5 9.39543 8.5 10.5C8.5 11.6046 9.39543 12.5 10.5 12.5Z" fill="black"/>
</svg>
