<svg width="32" height="32" viewBox="0 0 32 32" fill="none" xmlns="http://www.w3.org/2000/svg">
<path fill-rule="evenodd" clip-rule="evenodd" d="M15.1454 2.25614C15.4675 2.19307 15.8002 2.21025 16.1141 2.30617C16.4278 2.40203 16.7132 2.57359 16.9449 2.80573C16.9448 2.80559 16.9451 2.80587 16.9449 2.80573L29.9913 15.852C30.1784 16.0362 30.3272 16.2556 30.4291 16.4976C30.5319 16.7417 30.5848 17.0039 30.5848 17.2688C30.5848 17.5336 30.5319 17.7958 30.4291 18.0399C30.3272 18.2819 30.1784 18.5013 29.9913 18.6855L18.6855 29.9913C18.5013 30.1784 18.2819 30.3272 18.0399 30.4291C17.7958 30.5319 17.5336 30.5848 17.2688 30.5848C17.0039 30.5848 16.7417 30.5319 16.4976 30.4291C16.2556 30.3272 16.0362 30.1784 15.852 29.9913L2.80614 16.9454C2.806 16.9452 2.80628 16.9455 2.80614 16.9454C2.57401 16.7136 2.40203 16.4278 2.30617 16.1141C2.21025 15.8002 2.19307 15.4675 2.25614 15.1454L2.25683 15.1419L4.26933 5.05436C4.34838 4.65812 4.65812 4.34838 5.05436 4.26933L15.1419 2.25683L15.3375 3.23751L15.1454 2.25614ZM15.5297 4.21887L6.10011 6.10011L4.21887 15.5297L4.21961 15.5304L17.2688 28.5795L28.5795 17.2688L15.5297 4.21887Z" fill="black"/>
<path d="M10.5 12C11.3284 12 12 11.3284 12 10.5C12 9.67157 11.3284 9 10.5 9C9.67157 9 9 9.67157 9 10.5C9 11.3284 9.67157 12 10.5 12Z" fill="black"/>
</svg>
